<?xml version="1.0" encoding="UTF-8" standalone="no"?>
<!DOCTYPE svg PUBLIC "-//W3C//DTD SVG 1.1//EN"
 "http://www.w3.org/Graphics/SVG/1.1/DTD/svg11.dtd">
<!-- Generated by graphviz version 2.38.0 (20140413.2041)
 -->
<!-- Title: CFG Pages: 1 -->
<svg width="257pt" height="628pt"
 viewBox="0.00 0.00 256.60 628.00" xmlns="http://www.w3.org/2000/svg" xmlns:xlink="http://www.w3.org/1999/xlink">
<g id="graph0" class="graph" transform="scale(1 1) rotate(0) translate(4 624)">
<title>CFG</title>
<polygon fill="white" stroke="none" points="-4,4 -4,-624 252.6,-624 252.6,4 -4,4"/>
<!-- 1 -->
<g id="node1" class="node"><title>1</title>
<polygon fill="none" stroke="green" points="213.305,-620 170.305,-620 170.305,-577 213.305,-577 213.305,-620"/>
<polyline fill="none" stroke="green" points="182.305,-620 170.305,-608 "/>
<polyline fill="none" stroke="green" points="170.305,-589 182.305,-577 "/>
<polyline fill="none" stroke="green" points="201.305,-577 213.305,-589 "/>
<polyline fill="none" stroke="green" points="213.305,-608 201.305,-620 "/>
<text text-anchor="middle" x="191.805" y="-594.8" font-family="Times New Roman,serif" font-size="14.00">Start</text>
</g>
<!-- 2 -->
<g id="node2" class="node"><title>2</title>
<polygon fill="none" stroke="blue" points="218.805,-540 164.805,-540 164.805,-504 218.805,-504 218.805,-540"/>
<text text-anchor="middle" x="191.805" y="-518.3" font-family="Times New Roman,serif" font-size="14.00">do</text>
</g>
<!-- 1&#45;&gt;2 -->
<g id="edge1" class="edge"><title>1&#45;&gt;2</title>
<path fill="none" stroke="black" d="M191.805,-576.748C191.805,-568.544 191.805,-559.003 191.805,-550.256"/>
<polygon fill="black" stroke="black" points="195.305,-550.124 191.805,-540.124 188.305,-550.124 195.305,-550.124"/>
</g>
<!-- 3 -->
<g id="node3" class="node"><title>3</title>
<polygon fill="none" stroke="blue" points="130.805,-467 76.805,-467 76.805,-431 130.805,-431 130.805,-467"/>
<text text-anchor="middle" x="103.805" y="-445.3" font-family="Times New Roman,serif" font-size="14.00">a++;</text>
</g>
<!-- 2&#45;&gt;3 -->
<g id="edge2" class="edge"><title>2&#45;&gt;3</title>
<path fill="none" stroke="black" d="M170.503,-503.813C159.153,-494.656 145.029,-483.26 132.704,-473.316"/>
<polygon fill="black" stroke="black" points="134.892,-470.584 124.911,-467.029 130.496,-476.032 134.892,-470.584"/>
</g>
<!-- 4 -->
<g id="node4" class="node"><title>4</title>
<polygon fill="none" stroke="blue" points="81.805,-394 0.19454,-376 81.805,-358 163.415,-376 81.805,-394"/>
<text text-anchor="middle" x="81.805" y="-372.3" font-family="Times New Roman,serif" font-size="14.00">if(a%5 == 0)</text>
</g>
<!-- 3&#45;&gt;4 -->
<g id="edge3" class="edge"><title>3&#45;&gt;4</title>
<path fill="none" stroke="black" d="M98.4794,-430.813C95.8645,-422.374 92.6605,-412.034 89.7624,-402.681"/>
<polygon fill="black" stroke="black" points="93.083,-401.572 86.78,-393.056 86.3966,-403.643 93.083,-401.572"/>
</g>
<!-- 5 -->
<g id="node5" class="node"><title>5</title>
<polygon fill="none" stroke="blue" points="106.805,-253 52.805,-253 52.805,-217 106.805,-217 106.805,-253"/>
<text text-anchor="middle" x="79.805" y="-231.3" font-family="Times New Roman,serif" font-size="14.00">break1</text>
</g>
<!-- 4&#45;&gt;5 -->
<g id="edge5" class="edge"><title>4&#45;&gt;5</title>
<path fill="none" stroke="green" stroke-width="2" d="M80.6332,-357.919C80.2947,-352.222 79.9717,-345.84 79.805,-340 79.0635,-314.026 79.1557,-284.388 79.3786,-263.415"/>
<polygon fill="green" stroke="green" stroke-width="2" points="82.8796,-263.344 79.5033,-253.302 75.8801,-263.258 82.8796,-263.344"/>
<text text-anchor="middle" x="90.805" y="-328.8" font-family="Times New Roman,serif" font-size="14.00" fill="green">Yes</text>
</g>
<!-- 6 -->
<g id="node6" class="node"><title>6</title>
<polygon fill="none" stroke="blue" points="171.305,-307 108.305,-307 108.305,-271 171.305,-271 171.305,-307"/>
<text text-anchor="middle" x="139.805" y="-285.3" font-family="Times New Roman,serif" font-size="14.00">if&#45;temp1</text>
</g>
<!-- 4&#45;&gt;6 -->
<g id="edge4" class="edge"><title>4&#45;&gt;6</title>
<path fill="none" stroke="red" stroke-width="2" d="M92.0954,-360.021C96.3452,-353.827 101.318,-346.571 105.805,-340 111.224,-332.064 117.116,-323.41 122.448,-315.566"/>
<polygon fill="red" stroke="red" stroke-width="2" points="125.451,-317.374 128.177,-307.136 119.661,-313.44 125.451,-317.374"/>
<text text-anchor="middle" x="124.805" y="-328.8" font-family="Times New Roman,serif" font-size="14.00" fill="red">No</text>
</g>
<!-- 8 -->
<g id="node8" class="node"><title>8</title>
<polygon fill="none" stroke="blue" points="164.805,-126 60.805,-126 60.805,-90 164.805,-90 164.805,-126"/>
<text text-anchor="middle" x="112.805" y="-104.3" font-family="Times New Roman,serif" font-size="14.00">do&#45;while&#45;temp1</text>
</g>
<!-- 5&#45;&gt;8 -->
<g id="edge6" class="edge"><title>5&#45;&gt;8</title>
<path fill="none" stroke="blue" stroke-dasharray="5,2" d="M80.5794,-216.795C81.5662,-202.242 83.7951,-180.952 88.805,-163 91.4098,-153.667 95.3596,-143.869 99.3073,-135.221"/>
<polygon fill="blue" stroke="blue" points="102.545,-136.564 103.692,-126.031 96.2267,-133.55 102.545,-136.564"/>
<text text-anchor="middle" x="104.305" y="-177.3" font-family="Times New Roman,serif" font-size="14.00" fill="blue">break</text>
</g>
<!-- 7 -->
<g id="node7" class="node"><title>7</title>
<ellipse fill="none" stroke="blue" cx="188.805" cy="-181" rx="59.5901" ry="18"/>
<text text-anchor="middle" x="188.805" y="-177.3" font-family="Times New Roman,serif" font-size="14.00">while(a&lt;100);</text>
</g>
<!-- 6&#45;&gt;7 -->
<g id="edge7" class="edge"><title>6&#45;&gt;7</title>
<path fill="none" stroke="black" d="M147.678,-270.969C155.5,-254.047 167.604,-227.863 176.659,-208.275"/>
<polygon fill="black" stroke="black" points="179.933,-209.534 180.952,-198.988 173.579,-206.597 179.933,-209.534"/>
</g>
<!-- 7&#45;&gt;2 -->
<g id="edge9" class="edge"><title>7&#45;&gt;2</title>
<path fill="none" stroke="green" stroke-width="2" d="M191.695,-199.202C194.954,-220.124 199.805,-256.547 199.805,-288 199.805,-450 199.805,-450 199.805,-450 199.805,-464.439 198.151,-480.428 196.347,-493.57"/>
<polygon fill="green" stroke="green" stroke-width="2" points="192.828,-493.44 194.829,-503.845 199.753,-494.463 192.828,-493.44"/>
<text text-anchor="middle" x="210.805" y="-372.3" font-family="Times New Roman,serif" font-size="14.00" fill="green">Yes</text>
</g>
<!-- 7&#45;&gt;8 -->
<g id="edge8" class="edge"><title>7&#45;&gt;8</title>
<path fill="none" stroke="black" d="M171.178,-163.533C161.51,-154.501 149.344,-143.135 138.624,-133.12"/>
<polygon fill="black" stroke="black" points="140.827,-130.388 131.13,-126.119 136.048,-135.503 140.827,-130.388"/>
</g>
<!-- 9 -->
<g id="node9" class="node"><title>9</title>
<polygon fill="none" stroke="pink" points="132.305,-39 93.305,-39 93.305,-0 132.305,-0 132.305,-39"/>
<polyline fill="none" stroke="pink" points="105.305,-39 93.305,-27 "/>
<polyline fill="none" stroke="pink" points="93.305,-12 105.305,-0 "/>
<polyline fill="none" stroke="pink" points="120.305,-0 132.305,-12 "/>
<polyline fill="none" stroke="pink" points="132.305,-27 120.305,-39 "/>
<text text-anchor="middle" x="112.805" y="-15.8" font-family="Times New Roman,serif" font-size="14.00">End</text>
</g>
<!-- 8&#45;&gt;9 -->
<g id="edge10" class="edge"><title>8&#45;&gt;9</title>
<path fill="none" stroke="blue" stroke-dasharray="5,2" d="M112.805,-89.9104C112.805,-78.333 112.805,-62.7497 112.805,-49.2819"/>
<polygon fill="blue" stroke="blue" points="116.305,-49.0514 112.805,-39.0514 109.305,-49.0515 116.305,-49.0514"/>
<text text-anchor="middle" x="123.805" y="-60.8" font-family="Times New Roman,serif" font-size="14.00" fill="blue">Exit</text>
</g>
</g>
</svg>
