<?xml version="1.0" encoding="UTF-8" standalone="no"?>
<!DOCTYPE svg PUBLIC "-//W3C//DTD SVG 1.1//EN"
 "http://www.w3.org/Graphics/SVG/1.1/DTD/svg11.dtd">
<!-- Generated by graphviz version 2.38.0 (20140413.2041)
 -->
<!-- Title: CFG Pages: 1 -->
<svg width="251pt" height="520pt"
 viewBox="0.00 0.00 251.13 520.00" xmlns="http://www.w3.org/2000/svg" xmlns:xlink="http://www.w3.org/1999/xlink">
<g id="graph0" class="graph" transform="scale(1 1) rotate(0) translate(4 516)">
<title>CFG</title>
<polygon fill="white" stroke="none" points="-4,4 -4,-516 247.134,-516 247.134,4 -4,4"/>
<!-- 1 -->
<g id="node1" class="node"><title>1</title>
<polygon fill="none" stroke="green" points="215,-512 172,-512 172,-469 215,-469 215,-512"/>
<polyline fill="none" stroke="green" points="184,-512 172,-500 "/>
<polyline fill="none" stroke="green" points="172,-481 184,-469 "/>
<polyline fill="none" stroke="green" points="203,-469 215,-481 "/>
<polyline fill="none" stroke="green" points="215,-500 203,-512 "/>
<text text-anchor="middle" x="193.5" y="-486.8" font-family="Times New Roman,serif" font-size="14.00">Start</text>
</g>
<!-- 2 -->
<g id="node2" class="node"><title>2</title>
<polygon fill="none" stroke="blue" points="220.5,-432 166.5,-432 166.5,-396 220.5,-396 220.5,-432"/>
<text text-anchor="middle" x="193.5" y="-410.3" font-family="Times New Roman,serif" font-size="14.00">a++;</text>
</g>
<!-- 1&#45;&gt;2 -->
<g id="edge1" class="edge"><title>1&#45;&gt;2</title>
<path fill="none" stroke="black" d="M193.5,-468.748C193.5,-460.544 193.5,-451.003 193.5,-442.256"/>
<polygon fill="black" stroke="black" points="197,-442.124 193.5,-432.124 190,-442.124 197,-442.124"/>
</g>
<!-- 3 -->
<g id="node3" class="node"><title>3</title>
<polygon fill="none" stroke="blue" points="193.5,-359 143.731,-341 193.5,-323 243.269,-341 193.5,-359"/>
<text text-anchor="middle" x="193.5" y="-337.3" font-family="Times New Roman,serif" font-size="14.00">if(a&gt;0)</text>
</g>
<!-- 2&#45;&gt;3 -->
<g id="edge2" class="edge"><title>2&#45;&gt;3</title>
<path fill="none" stroke="black" d="M193.5,-395.813C193.5,-387.789 193.5,-378.047 193.5,-369.069"/>
<polygon fill="black" stroke="black" points="197,-369.029 193.5,-359.029 190,-369.029 197,-369.029"/>
</g>
<!-- 4 -->
<g id="node4" class="node"><title>4</title>
<polygon fill="none" stroke="blue" points="134.5,-272 80.5,-272 80.5,-236 134.5,-236 134.5,-272"/>
<text text-anchor="middle" x="107.5" y="-250.3" font-family="Times New Roman,serif" font-size="14.00">a++;</text>
</g>
<!-- 3&#45;&gt;4 -->
<g id="edge4" class="edge"><title>3&#45;&gt;4</title>
<path fill="none" stroke="green" stroke-width="2" d="M180.81,-327.458C168.122,-314.917 148.27,-295.296 132.422,-279.633"/>
<polygon fill="green" stroke="green" stroke-width="2" points="134.586,-276.85 125.014,-272.31 129.665,-281.829 134.586,-276.85"/>
<text text-anchor="middle" x="167.5" y="-293.8" font-family="Times New Roman,serif" font-size="14.00" fill="green">Yes</text>
</g>
<!-- 6 -->
<g id="node6" class="node"><title>6</title>
<polygon fill="none" stroke="blue" points="198,-112 135,-112 135,-76 198,-76 198,-112"/>
<text text-anchor="middle" x="166.5" y="-90.3" font-family="Times New Roman,serif" font-size="14.00">if&#45;temp1</text>
</g>
<!-- 3&#45;&gt;6 -->
<g id="edge3" class="edge"><title>3&#45;&gt;6</title>
<path fill="none" stroke="red" stroke-width="2" d="M193.613,-323.002C193.576,-289.475 192.205,-212.562 181.5,-149 180.007,-140.132 177.636,-130.629 175.217,-122.105"/>
<polygon fill="red" stroke="red" stroke-width="2" points="178.506,-120.887 172.298,-112.302 171.798,-122.885 178.506,-120.887"/>
<text text-anchor="middle" x="199.5" y="-206.8" font-family="Times New Roman,serif" font-size="14.00" fill="red">No</text>
</g>
<!-- 5 -->
<g id="node5" class="node"><title>5</title>
<polygon fill="none" stroke="blue" points="173,-185 0,-185 0,-149 173,-149 173,-185"/>
<text text-anchor="middle" x="86.5" y="-163.3" font-family="Times New Roman,serif" font-size="14.00">System.out.println(&quot;Hello&quot;);</text>
</g>
<!-- 4&#45;&gt;5 -->
<g id="edge5" class="edge"><title>4&#45;&gt;5</title>
<path fill="none" stroke="black" d="M103.25,-235.799C100.375,-224.163 96.5177,-208.548 93.2291,-195.237"/>
<polygon fill="black" stroke="black" points="96.5397,-194.044 90.7433,-185.175 89.7441,-195.723 96.5397,-194.044"/>
</g>
<!-- 5&#45;&gt;6 -->
<g id="edge6" class="edge"><title>5&#45;&gt;6</title>
<path fill="none" stroke="black" d="M105.866,-148.813C115.987,-139.83 128.536,-128.693 139.587,-118.886"/>
<polygon fill="black" stroke="black" points="142.157,-121.284 147.313,-112.029 137.51,-116.049 142.157,-121.284"/>
</g>
<!-- 7 -->
<g id="node7" class="node"><title>7</title>
<polygon fill="none" stroke="pink" points="186,-39 147,-39 147,-0 186,-0 186,-39"/>
<polyline fill="none" stroke="pink" points="159,-39 147,-27 "/>
<polyline fill="none" stroke="pink" points="147,-12 159,-0 "/>
<polyline fill="none" stroke="pink" points="174,-0 186,-12 "/>
<polyline fill="none" stroke="pink" points="186,-27 174,-39 "/>
<text text-anchor="middle" x="166.5" y="-15.8" font-family="Times New Roman,serif" font-size="14.00">End</text>
</g>
<!-- 6&#45;&gt;7 -->
<g id="edge7" class="edge"><title>6&#45;&gt;7</title>
<path fill="none" stroke="black" d="M166.5,-75.8185C166.5,-67.873 166.5,-58.2189 166.5,-49.2139"/>
<polygon fill="black" stroke="black" points="170,-49.0823 166.5,-39.0823 163,-49.0823 170,-49.0823"/>
</g>
</g>
</svg>
