<?xml version="1.0" encoding="UTF-8" standalone="no"?>
<!DOCTYPE svg PUBLIC "-//W3C//DTD SVG 1.1//EN"
 "http://www.w3.org/Graphics/SVG/1.1/DTD/svg11.dtd">
<!-- Generated by graphviz version 2.38.0 (20140413.2041)
 -->
<!-- Title: CFG Pages: 1 -->
<svg width="134pt" height="433pt"
 viewBox="0.00 0.00 134.00 433.00" xmlns="http://www.w3.org/2000/svg" xmlns:xlink="http://www.w3.org/1999/xlink">
<g id="graph0" class="graph" transform="scale(1 1) rotate(0) translate(4 429)">
<title>CFG</title>
<polygon fill="white" stroke="none" points="-4,4 -4,-429 130,-429 130,4 -4,4"/>
<!-- 1 -->
<g id="node1" class="node"><title>1</title>
<polygon fill="none" stroke="green" points="84.5,-425 41.5,-425 41.5,-382 84.5,-382 84.5,-425"/>
<polyline fill="none" stroke="green" points="53.5,-425 41.5,-413 "/>
<polyline fill="none" stroke="green" points="41.5,-394 53.5,-382 "/>
<polyline fill="none" stroke="green" points="72.5,-382 84.5,-394 "/>
<polyline fill="none" stroke="green" points="84.5,-413 72.5,-425 "/>
<text text-anchor="middle" x="63" y="-399.8" font-family="Times New Roman,serif" font-size="14.00">Start</text>
</g>
<!-- 2 -->
<g id="node2" class="node"><title>2</title>
<polygon fill="none" stroke="blue" points="90,-345 36,-345 36,-309 90,-309 90,-345"/>
<text text-anchor="middle" x="63" y="-323.3" font-family="Times New Roman,serif" font-size="14.00">a++;</text>
</g>
<!-- 1&#45;&gt;2 -->
<g id="edge1" class="edge"><title>1&#45;&gt;2</title>
<path fill="none" stroke="black" d="M63,-381.748C63,-373.544 63,-364.003 63,-355.256"/>
<polygon fill="black" stroke="black" points="66.5001,-355.124 63,-345.124 59.5001,-355.124 66.5001,-355.124"/>
</g>
<!-- 3 -->
<g id="node3" class="node"><title>3</title>
<polygon fill="none" stroke="blue" points="63,-272 13.2307,-254 63,-236 112.769,-254 63,-272"/>
<text text-anchor="middle" x="63" y="-250.3" font-family="Times New Roman,serif" font-size="14.00">if(a&gt;0)</text>
</g>
<!-- 2&#45;&gt;3 -->
<g id="edge2" class="edge"><title>2&#45;&gt;3</title>
<path fill="none" stroke="black" d="M63,-308.813C63,-300.789 63,-291.047 63,-282.069"/>
<polygon fill="black" stroke="black" points="66.5001,-282.029 63,-272.029 59.5001,-282.029 66.5001,-282.029"/>
</g>
<!-- 4 -->
<g id="node4" class="node"><title>4</title>
<polygon fill="none" stroke="blue" points="54,-185 0,-185 0,-149 54,-149 54,-185"/>
<text text-anchor="middle" x="27" y="-163.3" font-family="Times New Roman,serif" font-size="14.00">a++;</text>
</g>
<!-- 3&#45;&gt;4 -->
<g id="edge4" class="edge"><title>3&#45;&gt;4</title>
<path fill="none" stroke="green" stroke-width="2" d="M56.7293,-238.194C51.6553,-226.214 44.3788,-209.033 38.2947,-194.668"/>
<polygon fill="green" stroke="green" stroke-width="2" points="41.4378,-193.115 34.315,-185.271 34.9921,-195.845 41.4378,-193.115"/>
<text text-anchor="middle" x="58" y="-206.8" font-family="Times New Roman,serif" font-size="14.00" fill="green">Yes</text>
</g>
<!-- 5 -->
<g id="node5" class="node"><title>5</title>
<polygon fill="none" stroke="blue" points="126,-185 72,-185 72,-149 126,-149 126,-185"/>
<text text-anchor="middle" x="99" y="-163.3" font-family="Times New Roman,serif" font-size="14.00">a&#45;&#45;;</text>
</g>
<!-- 3&#45;&gt;5 -->
<g id="edge3" class="edge"><title>3&#45;&gt;5</title>
<path fill="none" stroke="red" stroke-width="2" d="M69.2707,-238.194C74.3447,-226.214 81.6212,-209.033 87.7053,-194.668"/>
<polygon fill="red" stroke="red" stroke-width="2" points="91.0079,-195.845 91.685,-185.271 84.5622,-193.115 91.0079,-195.845"/>
<text text-anchor="middle" x="92" y="-206.8" font-family="Times New Roman,serif" font-size="14.00" fill="red">No</text>
</g>
<!-- 6 -->
<g id="node6" class="node"><title>6</title>
<polygon fill="none" stroke="blue" points="110,-112 26,-112 26,-76 110,-76 110,-112"/>
<text text-anchor="middle" x="68" y="-90.3" font-family="Times New Roman,serif" font-size="14.00">ifelse&#45;temp1</text>
</g>
<!-- 4&#45;&gt;6 -->
<g id="edge5" class="edge"><title>4&#45;&gt;6</title>
<path fill="none" stroke="black" d="M36.925,-148.813C41.7596,-140.441 47.6749,-130.197 53.0422,-120.903"/>
<polygon fill="black" stroke="black" points="56.1966,-122.439 58.1664,-112.029 50.1347,-118.938 56.1966,-122.439"/>
</g>
<!-- 5&#45;&gt;6 -->
<g id="edge6" class="edge"><title>5&#45;&gt;6</title>
<path fill="none" stroke="black" d="M91.4958,-148.813C87.9164,-140.615 83.5538,-130.623 79.5637,-121.485"/>
<polygon fill="black" stroke="black" points="82.6442,-119.793 75.4351,-112.029 76.229,-122.594 82.6442,-119.793"/>
</g>
<!-- 7 -->
<g id="node7" class="node"><title>7</title>
<polygon fill="none" stroke="pink" points="87.5,-39 48.5,-39 48.5,-0 87.5,-0 87.5,-39"/>
<polyline fill="none" stroke="pink" points="60.5,-39 48.5,-27 "/>
<polyline fill="none" stroke="pink" points="48.5,-12 60.5,-0 "/>
<polyline fill="none" stroke="pink" points="75.5,-0 87.5,-12 "/>
<polyline fill="none" stroke="pink" points="87.5,-27 75.5,-39 "/>
<text text-anchor="middle" x="68" y="-15.8" font-family="Times New Roman,serif" font-size="14.00">End</text>
</g>
<!-- 6&#45;&gt;7 -->
<g id="edge7" class="edge"><title>6&#45;&gt;7</title>
<path fill="none" stroke="black" d="M68,-75.8185C68,-67.873 68,-58.2189 68,-49.2139"/>
<polygon fill="black" stroke="black" points="71.5001,-49.0823 68,-39.0823 64.5001,-49.0823 71.5001,-49.0823"/>
</g>
</g>
</svg>
