<?xml version="1.0" encoding="UTF-8" standalone="no"?>
<!DOCTYPE svg PUBLIC "-//W3C//DTD SVG 1.1//EN"
 "http://www.w3.org/Graphics/SVG/1.1/DTD/svg11.dtd">
<!-- Generated by graphviz version 2.38.0 (20140413.2041)
 -->
<!-- Title: CFG Pages: 1 -->
<svg width="206pt" height="447pt"
 viewBox="0.00 0.00 206.00 447.00" xmlns="http://www.w3.org/2000/svg" xmlns:xlink="http://www.w3.org/1999/xlink">
<g id="graph0" class="graph" transform="scale(1 1) rotate(0) translate(4 443)">
<title>CFG</title>
<polygon fill="white" stroke="none" points="-4,4 -4,-443 202,-443 202,4 -4,4"/>
<!-- 1 -->
<g id="node1" class="node"><title>1</title>
<polygon fill="none" stroke="green" points="120.5,-439 77.5,-439 77.5,-396 120.5,-396 120.5,-439"/>
<polyline fill="none" stroke="green" points="89.5,-439 77.5,-427 "/>
<polyline fill="none" stroke="green" points="77.5,-408 89.5,-396 "/>
<polyline fill="none" stroke="green" points="108.5,-396 120.5,-408 "/>
<polyline fill="none" stroke="green" points="120.5,-427 108.5,-439 "/>
<text text-anchor="middle" x="99" y="-413.8" font-family="Times New Roman,serif" font-size="14.00">Start</text>
</g>
<!-- 2 -->
<g id="node2" class="node"><title>2</title>
<polygon fill="none" stroke="lightgreen" points="146.676,-333.544 146.676,-348.456 118.748,-359 79.2521,-359 51.3245,-348.456 51.3245,-333.544 79.2521,-323 118.748,-323 146.676,-333.544"/>
<text text-anchor="middle" x="99" y="-337.3" font-family="Times New Roman,serif" font-size="14.00">switch(a)</text>
</g>
<!-- 1&#45;&gt;2 -->
<g id="edge1" class="edge"><title>1&#45;&gt;2</title>
<path fill="none" stroke="black" d="M99,-395.748C99,-387.544 99,-378.003 99,-369.256"/>
<polygon fill="black" stroke="black" points="102.5,-369.124 99,-359.124 95.5001,-369.124 102.5,-369.124"/>
</g>
<!-- 3 -->
<g id="node3" class="node"><title>3</title>
<polygon fill="none" stroke="blue" points="54,-272 0,-272 0,-236 54,-236 54,-272"/>
<text text-anchor="middle" x="27" y="-250.3" font-family="Times New Roman,serif" font-size="14.00">a++;</text>
</g>
<!-- 2&#45;&gt;3 -->
<g id="edge4" class="edge"><title>2&#45;&gt;3</title>
<path fill="none" stroke="black" d="M76.1924,-323.959C69.2324,-318.429 61.8745,-311.882 56,-305 49.9124,-297.869 44.4053,-289.282 39.8659,-281.253"/>
<polygon fill="black" stroke="black" points="42.8204,-279.356 35.0048,-272.203 36.6538,-282.669 42.8204,-279.356"/>
<text text-anchor="middle" x="75.5" y="-293.8" font-family="Times New Roman,serif" font-size="14.00">case 1:</text>
</g>
<!-- 5 -->
<g id="node5" class="node"><title>5</title>
<polygon fill="none" stroke="blue" points="126,-272 72,-272 72,-236 126,-236 126,-272"/>
<text text-anchor="middle" x="99" y="-250.3" font-family="Times New Roman,serif" font-size="14.00">a&#45;&#45;;</text>
</g>
<!-- 2&#45;&gt;5 -->
<g id="edge3" class="edge"><title>2&#45;&gt;5</title>
<path fill="none" stroke="black" d="M99,-322.799C99,-311.163 99,-295.548 99,-282.237"/>
<polygon fill="black" stroke="black" points="102.5,-282.175 99,-272.175 95.5001,-282.175 102.5,-282.175"/>
<text text-anchor="middle" x="118.5" y="-293.8" font-family="Times New Roman,serif" font-size="14.00">case 2:</text>
</g>
<!-- 7 -->
<g id="node7" class="node"><title>7</title>
<polygon fill="none" stroke="blue" points="198,-272 144,-272 144,-236 198,-236 198,-272"/>
<text text-anchor="middle" x="171" y="-250.3" font-family="Times New Roman,serif" font-size="14.00">a=0;</text>
</g>
<!-- 2&#45;&gt;7 -->
<g id="edge2" class="edge"><title>2&#45;&gt;7</title>
<path fill="none" stroke="black" d="M121.808,-323.959C128.768,-318.429 136.126,-311.882 142,-305 148.088,-297.869 153.595,-289.282 158.134,-281.253"/>
<polygon fill="black" stroke="black" points="161.346,-282.669 162.995,-272.203 155.18,-279.356 161.346,-282.669"/>
<text text-anchor="middle" x="171.5" y="-293.8" font-family="Times New Roman,serif" font-size="14.00">case 3:</text>
</g>
<!-- 4 -->
<g id="node4" class="node"><title>4</title>
<polygon fill="none" stroke="blue" points="54,-199 0,-199 0,-163 54,-163 54,-199"/>
<text text-anchor="middle" x="27" y="-177.3" font-family="Times New Roman,serif" font-size="14.00">break1</text>
</g>
<!-- 3&#45;&gt;4 -->
<g id="edge5" class="edge"><title>3&#45;&gt;4</title>
<path fill="none" stroke="black" d="M27,-235.813C27,-227.789 27,-218.047 27,-209.069"/>
<polygon fill="black" stroke="black" points="30.5001,-209.029 27,-199.029 23.5001,-209.029 30.5001,-209.029"/>
</g>
<!-- 9 -->
<g id="node9" class="node"><title>9</title>
<polygon fill="none" stroke="blue" points="145,-112 53,-112 53,-76 145,-76 145,-112"/>
<text text-anchor="middle" x="99" y="-90.3" font-family="Times New Roman,serif" font-size="14.00">switch&#45;temp1</text>
</g>
<!-- 4&#45;&gt;9 -->
<g id="edge6" class="edge"><title>4&#45;&gt;9</title>
<path fill="none" stroke="blue" stroke-dasharray="5,2" d="M38.7328,-162.854C45.7271,-152.971 54.9771,-140.471 64,-130 66.9835,-126.538 70.2381,-123.003 73.5224,-119.576"/>
<polygon fill="blue" stroke="blue" points="76.148,-121.898 80.6657,-112.314 71.1577,-116.989 76.148,-121.898"/>
<text text-anchor="middle" x="79.5" y="-133.8" font-family="Times New Roman,serif" font-size="14.00" fill="blue">break</text>
</g>
<!-- 6 -->
<g id="node6" class="node"><title>6</title>
<polygon fill="none" stroke="blue" points="126,-199 72,-199 72,-163 126,-163 126,-199"/>
<text text-anchor="middle" x="99" y="-177.3" font-family="Times New Roman,serif" font-size="14.00">break2</text>
</g>
<!-- 5&#45;&gt;6 -->
<g id="edge7" class="edge"><title>5&#45;&gt;6</title>
<path fill="none" stroke="black" d="M99,-235.813C99,-227.789 99,-218.047 99,-209.069"/>
<polygon fill="black" stroke="black" points="102.5,-209.029 99,-199.029 95.5001,-209.029 102.5,-209.029"/>
</g>
<!-- 6&#45;&gt;9 -->
<g id="edge8" class="edge"><title>6&#45;&gt;9</title>
<path fill="none" stroke="blue" stroke-dasharray="5,2" d="M99,-162.799C99,-151.163 99,-135.548 99,-122.237"/>
<polygon fill="blue" stroke="blue" points="102.5,-122.175 99,-112.175 95.5001,-122.175 102.5,-122.175"/>
<text text-anchor="middle" x="114.5" y="-133.8" font-family="Times New Roman,serif" font-size="14.00" fill="blue">break</text>
</g>
<!-- 8 -->
<g id="node8" class="node"><title>8</title>
<polygon fill="none" stroke="blue" points="198,-199 144,-199 144,-163 198,-163 198,-199"/>
<text text-anchor="middle" x="171" y="-177.3" font-family="Times New Roman,serif" font-size="14.00">break3</text>
</g>
<!-- 7&#45;&gt;8 -->
<g id="edge9" class="edge"><title>7&#45;&gt;8</title>
<path fill="none" stroke="black" d="M171,-235.813C171,-227.789 171,-218.047 171,-209.069"/>
<polygon fill="black" stroke="black" points="174.5,-209.029 171,-199.029 167.5,-209.029 174.5,-209.029"/>
</g>
<!-- 8&#45;&gt;9 -->
<g id="edge10" class="edge"><title>8&#45;&gt;9</title>
<path fill="none" stroke="blue" stroke-dasharray="5,2" d="M159.267,-162.854C152.273,-152.971 143.023,-140.471 134,-130 131.016,-126.538 127.762,-123.003 124.478,-119.576"/>
<polygon fill="blue" stroke="blue" points="126.842,-116.989 117.334,-112.314 121.852,-121.898 126.842,-116.989"/>
<text text-anchor="middle" x="160.5" y="-133.8" font-family="Times New Roman,serif" font-size="14.00" fill="blue">break</text>
</g>
<!-- 10 -->
<g id="node10" class="node"><title>10</title>
<polygon fill="none" stroke="pink" points="118.5,-39 79.5,-39 79.5,-0 118.5,-0 118.5,-39"/>
<polyline fill="none" stroke="pink" points="91.5,-39 79.5,-27 "/>
<polyline fill="none" stroke="pink" points="79.5,-12 91.5,-0 "/>
<polyline fill="none" stroke="pink" points="106.5,-0 118.5,-12 "/>
<polyline fill="none" stroke="pink" points="118.5,-27 106.5,-39 "/>
<text text-anchor="middle" x="99" y="-15.8" font-family="Times New Roman,serif" font-size="14.00">End</text>
</g>
<!-- 9&#45;&gt;10 -->
<g id="edge11" class="edge"><title>9&#45;&gt;10</title>
<path fill="none" stroke="black" d="M99,-75.8185C99,-67.873 99,-58.2189 99,-49.2139"/>
<polygon fill="black" stroke="black" points="102.5,-49.0823 99,-39.0823 95.5001,-49.0823 102.5,-49.0823"/>
</g>
</g>
</svg>
