<?xml version="1.0" encoding="UTF-8" standalone="no"?>
<!DOCTYPE svg PUBLIC "-//W3C//DTD SVG 1.1//EN"
 "http://www.w3.org/Graphics/SVG/1.1/DTD/svg11.dtd">
<!-- Generated by graphviz version 2.38.0 (20140413.2041)
 -->
<!-- Title: CFG Pages: 1 -->
<svg width="191pt" height="590pt"
 viewBox="0.00 0.00 191.00 590.00" xmlns="http://www.w3.org/2000/svg" xmlns:xlink="http://www.w3.org/1999/xlink">
<g id="graph0" class="graph" transform="scale(1 1) rotate(0) translate(4 586)">
<title>CFG</title>
<polygon fill="white" stroke="none" points="-4,4 -4,-586 187,-586 187,4 -4,4"/>
<!-- 1 -->
<g id="node1" class="node"><title>1</title>
<polygon fill="none" stroke="green" points="111.5,-582 68.5,-582 68.5,-539 111.5,-539 111.5,-582"/>
<polyline fill="none" stroke="green" points="80.5,-582 68.5,-570 "/>
<polyline fill="none" stroke="green" points="68.5,-551 80.5,-539 "/>
<polyline fill="none" stroke="green" points="99.5,-539 111.5,-551 "/>
<polyline fill="none" stroke="green" points="111.5,-570 99.5,-582 "/>
<text text-anchor="middle" x="90" y="-556.8" font-family="Times New Roman,serif" font-size="14.00">Start</text>
</g>
<!-- 2 -->
<g id="node2" class="node"><title>2</title>
<polygon fill="none" stroke="lightgreen" points="137.676,-476.544 137.676,-491.456 109.748,-502 70.2521,-502 42.3245,-491.456 42.3245,-476.544 70.2521,-466 109.748,-466 137.676,-476.544"/>
<text text-anchor="middle" x="90" y="-480.3" font-family="Times New Roman,serif" font-size="14.00">switch(a)</text>
</g>
<!-- 1&#45;&gt;2 -->
<g id="edge1" class="edge"><title>1&#45;&gt;2</title>
<path fill="none" stroke="black" d="M90,-538.748C90,-530.544 90,-521.003 90,-512.256"/>
<polygon fill="black" stroke="black" points="93.5001,-512.124 90,-502.124 86.5001,-512.124 93.5001,-512.124"/>
</g>
<!-- 3 -->
<g id="node3" class="node"><title>3</title>
<polygon fill="none" stroke="blue" points="54,-415 0,-415 0,-379 54,-379 54,-415"/>
<text text-anchor="middle" x="27" y="-393.3" font-family="Times New Roman,serif" font-size="14.00">a++;</text>
</g>
<!-- 2&#45;&gt;3 -->
<g id="edge4" class="edge"><title>2&#45;&gt;3</title>
<path fill="none" stroke="black" d="M60.6947,-469.366C51.8399,-463.9 42.9095,-456.783 37,-448 32.4643,-441.259 29.8955,-432.925 28.4662,-425.006"/>
<polygon fill="black" stroke="black" points="31.9266,-424.474 27.1742,-415.005 24.9843,-425.371 31.9266,-424.474"/>
<text text-anchor="middle" x="56.5" y="-436.8" font-family="Times New Roman,serif" font-size="14.00">case 1:</text>
</g>
<!-- 4 -->
<g id="node4" class="node"><title>4</title>
<polygon fill="none" stroke="blue" points="117,-307 63,-307 63,-271 117,-271 117,-307"/>
<text text-anchor="middle" x="90" y="-285.3" font-family="Times New Roman,serif" font-size="14.00">a&#45;&#45;;</text>
</g>
<!-- 2&#45;&gt;4 -->
<g id="edge3" class="edge"><title>2&#45;&gt;4</title>
<path fill="none" stroke="black" d="M90,-465.873C90,-432.323 90,-357.707 90,-317.287"/>
<polygon fill="black" stroke="black" points="93.5001,-317.089 90,-307.089 86.5001,-317.089 93.5001,-317.089"/>
<text text-anchor="middle" x="109.5" y="-393.3" font-family="Times New Roman,serif" font-size="14.00">case 2:</text>
</g>
<!-- 6 -->
<g id="node6" class="node"><title>6</title>
<polygon fill="none" stroke="blue" points="183,-361 129,-361 129,-325 183,-325 183,-361"/>
<text text-anchor="middle" x="156" y="-339.3" font-family="Times New Roman,serif" font-size="14.00">a=0;</text>
</g>
<!-- 2&#45;&gt;6 -->
<g id="edge2" class="edge"><title>2&#45;&gt;6</title>
<path fill="none" stroke="black" d="M102.585,-465.798C111.921,-452.45 124.459,-433.21 133,-415 139.621,-400.885 145.099,-384.353 149.046,-370.794"/>
<polygon fill="black" stroke="black" points="152.436,-371.668 151.759,-361.095 145.695,-369.782 152.436,-371.668"/>
<text text-anchor="middle" x="142.5" y="-436.8" font-family="Times New Roman,serif" font-size="14.00">case 3:</text>
</g>
<!-- 3&#45;&gt;4 -->
<g id="edge5" class="edge"><title>3&#45;&gt;4</title>
<path fill="none" stroke="black" d="M37.122,-378.969C47.2111,-361.994 62.8401,-335.698 74.4939,-316.09"/>
<polygon fill="black" stroke="black" points="77.5933,-317.725 79.6938,-307.341 71.5759,-314.149 77.5933,-317.725"/>
</g>
<!-- 5 -->
<g id="node5" class="node"><title>5</title>
<polygon fill="none" stroke="blue" points="118,-199 64,-199 64,-163 118,-163 118,-199"/>
<text text-anchor="middle" x="91" y="-177.3" font-family="Times New Roman,serif" font-size="14.00">break1</text>
</g>
<!-- 4&#45;&gt;5 -->
<g id="edge6" class="edge"><title>4&#45;&gt;5</title>
<path fill="none" stroke="black" d="M90.1607,-270.969C90.3172,-254.378 90.5577,-228.883 90.7412,-209.431"/>
<polygon fill="black" stroke="black" points="94.2418,-209.373 90.8364,-199.341 87.2421,-209.307 94.2418,-209.373"/>
</g>
<!-- 8 -->
<g id="node8" class="node"><title>8</title>
<polygon fill="none" stroke="blue" points="173,-112 81,-112 81,-76 173,-76 173,-112"/>
<text text-anchor="middle" x="127" y="-90.3" font-family="Times New Roman,serif" font-size="14.00">switch&#45;temp1</text>
</g>
<!-- 5&#45;&gt;8 -->
<g id="edge7" class="edge"><title>5&#45;&gt;8</title>
<path fill="none" stroke="blue" stroke-dasharray="5,2" d="M96.6239,-162.661C99.9304,-152.939 104.363,-140.66 109,-130 110.241,-127.147 111.61,-124.202 113.022,-121.287"/>
<polygon fill="blue" stroke="blue" points="116.209,-122.739 117.576,-112.233 109.956,-119.594 116.209,-122.739"/>
<text text-anchor="middle" x="124.5" y="-133.8" font-family="Times New Roman,serif" font-size="14.00" fill="blue">break</text>
</g>
<!-- 7 -->
<g id="node7" class="node"><title>7</title>
<polygon fill="none" stroke="blue" points="181,-253 127,-253 127,-217 181,-217 181,-253"/>
<text text-anchor="middle" x="154" y="-231.3" font-family="Times New Roman,serif" font-size="14.00">break2</text>
</g>
<!-- 6&#45;&gt;7 -->
<g id="edge8" class="edge"><title>6&#45;&gt;7</title>
<path fill="none" stroke="black" d="M155.679,-324.969C155.366,-308.378 154.885,-282.883 154.518,-263.431"/>
<polygon fill="black" stroke="black" points="158.015,-263.273 154.327,-253.341 151.017,-263.405 158.015,-263.273"/>
</g>
<!-- 7&#45;&gt;8 -->
<g id="edge9" class="edge"><title>7&#45;&gt;8</title>
<path fill="none" stroke="blue" stroke-dasharray="5,2" d="M152.862,-216.849C151.215,-196.051 147.504,-160.048 140,-130 139.331,-127.321 138.525,-124.565 137.646,-121.831"/>
<polygon fill="blue" stroke="blue" points="140.879,-120.476 134.255,-112.207 134.277,-122.802 140.879,-120.476"/>
<text text-anchor="middle" x="166.5" y="-177.3" font-family="Times New Roman,serif" font-size="14.00" fill="blue">break</text>
</g>
<!-- 9 -->
<g id="node9" class="node"><title>9</title>
<polygon fill="none" stroke="pink" points="146.5,-39 107.5,-39 107.5,-0 146.5,-0 146.5,-39"/>
<polyline fill="none" stroke="pink" points="119.5,-39 107.5,-27 "/>
<polyline fill="none" stroke="pink" points="107.5,-12 119.5,-0 "/>
<polyline fill="none" stroke="pink" points="134.5,-0 146.5,-12 "/>
<polyline fill="none" stroke="pink" points="146.5,-27 134.5,-39 "/>
<text text-anchor="middle" x="127" y="-15.8" font-family="Times New Roman,serif" font-size="14.00">End</text>
</g>
<!-- 8&#45;&gt;9 -->
<g id="edge10" class="edge"><title>8&#45;&gt;9</title>
<path fill="none" stroke="black" d="M127,-75.8185C127,-67.873 127,-58.2189 127,-49.2139"/>
<polygon fill="black" stroke="black" points="130.5,-49.0823 127,-39.0823 123.5,-49.0823 130.5,-49.0823"/>
</g>
</g>
</svg>
