<?xml version="1.0" encoding="UTF-8" standalone="no"?>
<!DOCTYPE svg PUBLIC "-//W3C//DTD SVG 1.1//EN"
 "http://www.w3.org/Graphics/SVG/1.1/DTD/svg11.dtd">
<!-- Generated by graphviz version 2.38.0 (20140413.2041)
 -->
<!-- Title: CFG Pages: 1 -->
<svg width="265pt" height="461pt"
 viewBox="0.00 0.00 264.57 461.00" xmlns="http://www.w3.org/2000/svg" xmlns:xlink="http://www.w3.org/1999/xlink">
<g id="graph0" class="graph" transform="scale(1 1) rotate(0) translate(4 457)">
<title>CFG</title>
<polygon fill="white" stroke="none" points="-4,4 -4,-457 260.573,-457 260.573,4 -4,4"/>
<!-- 1 -->
<g id="node1" class="node"><title>1</title>
<polygon fill="none" stroke="green" points="126.195,-453 83.1945,-453 83.1945,-410 126.195,-410 126.195,-453"/>
<polyline fill="none" stroke="green" points="95.1945,-453 83.1945,-441 "/>
<polyline fill="none" stroke="green" points="83.1945,-422 95.1945,-410 "/>
<polyline fill="none" stroke="green" points="114.195,-410 126.195,-422 "/>
<polyline fill="none" stroke="green" points="126.195,-441 114.195,-453 "/>
<text text-anchor="middle" x="104.695" y="-427.8" font-family="Times New Roman,serif" font-size="14.00">Start</text>
</g>
<!-- 2 -->
<g id="node2" class="node"><title>2</title>
<polygon fill="none" stroke="blue" points="131.695,-373 77.6945,-373 77.6945,-337 131.695,-337 131.695,-373"/>
<text text-anchor="middle" x="104.695" y="-351.3" font-family="Times New Roman,serif" font-size="14.00">a=0;</text>
</g>
<!-- 1&#45;&gt;2 -->
<g id="edge1" class="edge"><title>1&#45;&gt;2</title>
<path fill="none" stroke="black" d="M104.695,-409.748C104.695,-401.544 104.695,-392.003 104.695,-383.256"/>
<polygon fill="black" stroke="black" points="108.195,-383.124 104.695,-373.124 101.195,-383.124 108.195,-383.124"/>
</g>
<!-- 3 -->
<g id="node3" class="node"><title>3</title>
<ellipse fill="none" stroke="blue" cx="104.695" cy="-282" rx="57.6901" ry="18"/>
<text text-anchor="middle" x="104.695" y="-278.3" font-family="Times New Roman,serif" font-size="14.00">while(a&lt;100)</text>
</g>
<!-- 2&#45;&gt;3 -->
<g id="edge2" class="edge"><title>2&#45;&gt;3</title>
<path fill="none" stroke="black" d="M104.695,-336.813C104.695,-328.789 104.695,-319.047 104.695,-310.069"/>
<polygon fill="black" stroke="black" points="108.195,-310.029 104.695,-300.029 101.195,-310.029 108.195,-310.029"/>
</g>
<!-- 4 -->
<g id="node4" class="node"><title>4</title>
<polygon fill="none" stroke="blue" points="182.695,-213 128.695,-213 128.695,-177 182.695,-177 182.695,-213"/>
<text text-anchor="middle" x="155.695" y="-191.3" font-family="Times New Roman,serif" font-size="14.00">a++;</text>
</g>
<!-- 3&#45;&gt;4 -->
<g id="edge4" class="edge"><title>3&#45;&gt;4</title>
<path fill="none" stroke="green" stroke-width="2" d="M114.77,-264.207C122.057,-252.062 132.036,-235.431 140.315,-221.633"/>
<polygon fill="green" stroke="green" stroke-width="2" points="143.321,-223.425 145.465,-213.049 137.319,-219.824 143.321,-223.425"/>
<text text-anchor="middle" x="143.695" y="-234.8" font-family="Times New Roman,serif" font-size="14.00" fill="green">Yes</text>
</g>
<!-- 8 -->
<g id="node8" class="node"><title>8</title>
<polygon fill="none" stroke="blue" points="108.695,-213 24.6945,-213 24.6945,-177 108.695,-177 108.695,-213"/>
<text text-anchor="middle" x="66.6945" y="-191.3" font-family="Times New Roman,serif" font-size="14.00">while&#45;temp1</text>
</g>
<!-- 3&#45;&gt;8 -->
<g id="edge3" class="edge"><title>3&#45;&gt;8</title>
<path fill="none" stroke="blue" stroke-dasharray="5,2" d="M97.0047,-263.799C91.6995,-251.932 84.5447,-235.928 78.5187,-222.449"/>
<polygon fill="blue" stroke="blue" points="81.6496,-220.876 74.373,-213.175 75.2591,-223.733 81.6496,-220.876"/>
<text text-anchor="middle" x="98.6945" y="-234.8" font-family="Times New Roman,serif" font-size="14.00" fill="blue">exit</text>
</g>
<!-- 5 -->
<g id="node5" class="node"><title>5</title>
<polygon fill="none" stroke="blue" points="161.695,-124.5 80.0841,-106.5 161.695,-88.5 243.305,-106.5 161.695,-124.5"/>
<text text-anchor="middle" x="161.695" y="-102.8" font-family="Times New Roman,serif" font-size="14.00">if(a%5 == 0)</text>
</g>
<!-- 4&#45;&gt;5 -->
<g id="edge5" class="edge"><title>4&#45;&gt;5</title>
<path fill="none" stroke="black" d="M156.88,-176.91C157.724,-164.748 158.874,-148.163 159.839,-134.256"/>
<polygon fill="black" stroke="black" points="163.332,-134.478 160.532,-124.26 156.348,-133.994 163.332,-134.478"/>
</g>
<!-- 6 -->
<g id="node6" class="node"><title>6</title>
<polygon fill="none" stroke="blue" points="91.6945,-36 27.6945,-36 27.6945,-0 91.6945,-0 91.6945,-36"/>
<text text-anchor="middle" x="59.6945" y="-14.3" font-family="Times New Roman,serif" font-size="14.00">continue</text>
</g>
<!-- 5&#45;&gt;6 -->
<g id="edge7" class="edge"><title>5&#45;&gt;6</title>
<path fill="none" stroke="green" stroke-width="2" d="M145.757,-91.9844C130.265,-78.8462 106.406,-58.613 87.7351,-42.7795"/>
<polygon fill="green" stroke="green" stroke-width="2" points="89.9811,-40.0951 80.0906,-36.2967 85.4537,-45.4339 89.9811,-40.0951"/>
<text text-anchor="middle" x="127.695" y="-57.8" font-family="Times New Roman,serif" font-size="14.00" fill="green">Yes</text>
</g>
<!-- 7 -->
<g id="node7" class="node"><title>7</title>
<polygon fill="none" stroke="blue" points="238.195,-36 175.195,-36 175.195,-0 238.195,-0 238.195,-36"/>
<text text-anchor="middle" x="206.695" y="-14.3" font-family="Times New Roman,serif" font-size="14.00">if&#45;temp1</text>
</g>
<!-- 5&#45;&gt;7 -->
<g id="edge6" class="edge"><title>5&#45;&gt;7</title>
<path fill="none" stroke="red" stroke-width="2" d="M169.74,-90.0355C176.21,-77.5983 185.446,-59.8451 193.065,-45.1983"/>
<polygon fill="red" stroke="red" stroke-width="2" points="196.284,-46.5956 197.794,-36.109 190.074,-43.365 196.284,-46.5956"/>
<text text-anchor="middle" x="196.695" y="-57.8" font-family="Times New Roman,serif" font-size="14.00" fill="red">No</text>
</g>
<!-- 6&#45;&gt;3 -->
<g id="edge8" class="edge"><title>6&#45;&gt;3</title>
<path fill="none" stroke="orange" stroke-dasharray="5,2" d="M45.3707,-36.0829C35.0734,-49.2171 21.6528,-68.236 13.6945,-87 1.02756,-116.866 -2.40922,-126.819 1.69453,-159 4.83084,-183.594 1.98251,-192.343 15.6945,-213 28.818,-232.77 49.6533,-249.143 67.8661,-260.866"/>
<polygon fill="orange" stroke="orange" points="66.206,-263.955 76.551,-266.242 69.8902,-258.003 66.206,-263.955"/>
<text text-anchor="middle" x="25.6945" y="-147.8" font-family="Times New Roman,serif" font-size="14.00" fill="orange">continue</text>
</g>
<!-- 7&#45;&gt;3 -->
<g id="edge9" class="edge"><title>7&#45;&gt;3</title>
<path fill="none" stroke="black" d="M222.638,-36.2057C233.449,-49.1083 246.806,-67.7853 252.695,-87 257.773,-103.573 257.912,-109.471 252.695,-126 232.302,-190.606 211.364,-203.388 158.695,-246 152.527,-250.99 145.625,-255.905 138.872,-260.403"/>
<polygon fill="black" stroke="black" points="136.953,-257.476 130.463,-265.85 140.759,-263.35 136.953,-257.476"/>
</g>
<!-- 9 -->
<g id="node9" class="node"><title>9</title>
<polygon fill="none" stroke="pink" points="62.1945,-126 23.1945,-126 23.1945,-87 62.1945,-87 62.1945,-126"/>
<polyline fill="none" stroke="pink" points="35.1945,-126 23.1945,-114 "/>
<polyline fill="none" stroke="pink" points="23.1945,-99 35.1945,-87 "/>
<polyline fill="none" stroke="pink" points="50.1945,-87 62.1945,-99 "/>
<polyline fill="none" stroke="pink" points="62.1945,-114 50.1945,-126 "/>
<text text-anchor="middle" x="42.6945" y="-102.8" font-family="Times New Roman,serif" font-size="14.00">End</text>
</g>
<!-- 8&#45;&gt;9 -->
<g id="edge10" class="edge"><title>8&#45;&gt;9</title>
<path fill="none" stroke="black" d="M61.9529,-176.91C58.7089,-165.218 54.3313,-149.441 50.5694,-135.882"/>
<polygon fill="black" stroke="black" points="53.888,-134.752 47.8418,-126.051 47.1428,-136.623 53.888,-134.752"/>
</g>
</g>
</svg>
